<?xml version="1.0" encoding="UTF-8"?>
<?xml-stylesheet type="text/css" href="../styles/stroke.css" ?>
<svg xmlns="http://www.w3.org/2000/svg" xmlns:xlink="http://www.w3.org/1999/xlink" version="1.1" viewBox="500 -130 210 210">
  <!--
	Exported with Concepts: Smarter Sketching
	Version: 368
	iOS Version: 10.2
	https://concepts.tophatch.com/
	-->
  <title>Cog Cloud</title>
  <desc>Drawing exported from Concepts: Smarter Sketching</desc>
  <g id="Pen" opacity="1.000">
    <path id="STROKE_2AC9A64B-5FAF-4312-85E6-86E297C82C7C" opacity="1.000" fill="none" stroke="#747879" stroke-width="7.800" stroke-opacity="1.000" stroke-linecap="round" stroke-linejoin="round" d="M 571.716 -30.716 Q 570.123 -32.626 567.360 -34.522 564.598 -36.417 563.939 -36.150 563.281 -35.883 560.897 -33.945 558.514 -32.006 559.134 -30.980 559.755 -29.954 560.747 -26.879 561.739 -23.805 560.339 -22.215 558.939 -20.624 558.033 -18.825 557.127 -17.026 555.145 -17.500 553.163 -17.974 550.787 -18.033 548.412 -18.092 546.719 -15.206 545.026 -12.321 548.217 -9.372 551.407 -6.423 551.532 -2.588 551.656 1.247 549.635 1.812 547.615 2.376 545.834 3.405 544.053 4.434 544.256 8.084 544.458 11.734 548.358 12.146 552.257 12.558 554.167 16.385 556.078 20.211 553.367 23.612 550.656 27.012 552.606 29.800 554.555 32.588 557.015 31.846 559.474 31.104 561.422 30.109 563.371 29.114 564.070 29.955 564.769 30.796 567.293 32.482 569.818 34.167 569.170 38.367 568.522 42.567 571.159 43.900 573.796 45.233 574.773 43.609 575.751 41.986 577.643 40.349 579.535 38.712 581.649 39.133 583.762 39.553 584.843 39.319 585.924 39.085 587.220 39.633 588.516 40.181 589.833 43.175 591.150 46.168 591.706 46.658 592.263 47.148 594.841 47.329 597.420 47.510 597.628 45.125 597.837 42.740 598.407 40.616 598.977 38.493 602.279 37.307 605.581 36.121 606.364 36.161 607.148 36.201 609.090 37.714 611.033 39.226 612.497 39.808 613.960 40.391 614.318 39.887 614.676 39.384 616.942 38.414 619.207 37.444 617.128 33.328 615.049 29.212 615.898 28.407 616.748 27.603 618.319 25.176 619.891 22.748 620.011 22.035 620.130 21.322 625.781 21.893 631.432 22.463 632.263 21.359 633.093 20.256 632.980 18.716 632.867 17.177 630.730 15.692 628.594 14.207 627.261 11.425 625.927 8.643 625.904 5.687 625.881 2.731 627.665 2.467 629.450 2.203 630.468 1.688 631.486 1.172 633.377 -0.720 635.268 -2.612 634.712 -4.738 634.156 -6.864 631.458 -8.223 628.759 -9.583 626.656 -9.599 624.553 -9.615 623.130 -12.872 621.706 -16.129 623.436 -18.671 625.165 -21.213 626.277 -22.380 627.388 -23.547 625.935 -25.616 624.482 -27.685 623.611 -27.689 622.740 -27.694 620.940 -26.964 619.140 -26.233 616.645 -25.579 614.150 -24.924 612.761 -26.457 611.372 -27.990 609.513 -28.667 607.653 -29.344 608.352 -32.031 609.052 -34.718 609.272 -36.443 609.492 -38.169 608.556 -38.965 607.619 -39.760 605.459 -40.674 603.300 -41.587 601.308 -38.683 599.316 -35.778 598.016 -35.455 596.715 -35.132 593.231 -35.150 589.747 -35.168 588.908 -37.742 588.068 -40.316 587.110 -41.921 586.152 -43.526 582.617 -43.166 579.082 -42.805 578.796 -38.343 578.510 -33.882 576.491 -33.062 574.471 -32.243 573.552 -31.359 L 572.633 -30.474 "></path>
    <path id="STROKE_0867943B-D892-4324-ADE4-30086D7E2F17" opacity="1.000" fill="none" stroke="#747879" stroke-width="7.800" stroke-opacity="1.000" stroke-linecap="round" stroke-linejoin="round" d="M 647.584 -8.061 Q 645.803 -7.868 644.993 -7.660 644.182 -7.452 643.041 -6.957 641.899 -6.462 640.017 -5.482 638.135 -4.501 638.292 -3.450 638.449 -2.399 638.476 -1.196 638.503 0.008 637.583 1.194 636.664 2.380 634.789 2.580 632.914 2.780 632.480 2.957 632.045 3.135 631.683 4.204 631.321 5.274 630.933 6.889 630.545 8.505 630.434 10.050 630.324 11.596 631.640 12.079 632.956 12.563 633.669 13.190 634.382 13.817 634.615 14.649 634.848 15.481 635.256 16.134 635.664 16.786 635.339 17.734 635.015 18.682 634.422 19.818 633.829 20.954 633.954 21.322 634.078 21.690 634.828 22.480 635.578 23.270 636.472 24.379 637.366 25.488 637.900 25.940 638.433 26.393 639.571 27.010 640.708 27.626 641.365 26.982 642.021 26.337 643.228 25.766 644.434 25.195 644.802 25.354 645.169 25.513 646.221 25.664 647.274 25.814 647.845 26.737 648.417 27.659 649.183 28.353 649.948 29.047 650.735 28.841 651.522 28.635 653.431 28.267 655.339 27.898 656.492 27.544 657.645 27.190 658.236 26.906 658.828 26.621 659.063 24.285 659.298 21.950 660.243 20.502 661.189 19.054 663.392 18.827 665.596 18.600 666.073 17.497 666.550 16.394 667.098 14.411 667.645 12.428 667.740 10.979 667.834 9.529 665.812 8.205 663.789 6.881 663.533 5.767 663.276 4.653 662.943 4.042 662.609 3.431 663.273 2.006 663.937 0.581 664.102 0.000 664.268 -0.581 663.909 -1.213 663.550 -1.846 662.492 -2.941 661.433 -4.037 660.603 -4.655 659.772 -5.273 658.730 -5.873 657.689 -6.474 656.092 -5.469 654.496 -4.464 654.186 -4.202 653.877 -3.941 652.042 -4.122 650.207 -4.303 649.719 -5.067 649.231 -5.831 648.443 -6.807 L 647.654 -7.783 "></path>
    <path id="STROKE_ED3F4167-24C9-43FF-AC80-2B560B643A5A" opacity="1.000" fill="none" stroke="#747879" stroke-width="7.800" stroke-opacity="1.000" stroke-linecap="round" stroke-linejoin="round" d="M 689.388 30.587 Q 690.335 21.272 688.520 20.528 686.705 19.785 684.890 19.255 683.075 18.725 680.837 22.707 678.599 26.689 677.217 26.769 675.834 26.848 674.162 27.253 672.489 27.657 671.411 26.225 670.333 24.793 668.742 23.319 667.151 21.845 666.659 21.227 666.167 20.609 662.948 22.472 659.729 24.335 660.263 26.391 660.796 28.447 661.418 30.089 662.040 31.732 662.050 32.526 662.060 33.319 660.855 35.161 659.651 37.003 658.041 36.532 656.431 36.062 654.100 35.733 651.769 35.405 651.124 35.436 650.480 35.467 650.230 36.377 649.980 37.286 649.155 39.029 648.330 40.772 647.961 41.878 647.592 42.985 649.796 43.996 652.000 45.008 653.214 45.697 654.427 46.386 655.521 46.632 656.614 46.877 656.792 48.640 656.970 50.402 657.302 52.156 657.634 53.909 655.660 54.942 653.686 55.974 651.623 57.421 649.560 58.867 650.146 59.895 650.733 60.922 651.496 62.859 652.260 64.795 652.927 65.682 653.595 66.568 655.795 65.446 657.996 64.323 660.201 63.598 662.406 62.872 663.026 63.661 663.647 64.449 664.865 65.322 666.083 66.194 665.391 70.455 664.699 74.716 666.657 75.968 668.614 77.219 670.223 77.476 671.833 77.733 672.701 76.332 673.569 74.930 674.105 73.725 674.640 72.521 675.525 71.000 676.410 69.478 676.880 69.605 677.349 69.733 679.935 69.335 682.521 68.937 683.061 69.867 683.600 70.796 684.622 71.763 685.644 72.730 686.838 74.422 688.032 76.115 689.435 75.459 690.838 74.803 691.717 74.622 692.596 74.441 694.096 73.312 695.597 72.182 694.799 70.271 694.002 68.361 693.387 66.019 692.772 63.677 693.586 62.877 694.399 62.077 694.922 60.962 695.445 59.847 697.559 60.206 699.672 60.565 702.250 60.654 704.828 60.743 705.470 59.004 706.111 57.266 706.620 55.387 707.128 53.508 705.025 51.992 702.922 50.477 701.004 49.384 699.085 48.290 698.640 45.180 698.194 42.069 699.840 40.990 701.485 39.911 703.348 38.376 705.210 36.840 704.448 35.757 703.686 34.674 702.658 32.457 701.629 30.239 700.192 30.921 698.755 31.602 695.931 32.393 693.107 33.184 691.193 32.060 L 689.278 30.937 "></path>
    <path id="STROKE_83C50BDA-81B7-48B2-B5FC-940120791737" opacity="1.000" fill="none" stroke="#747879" stroke-width="7.800" stroke-opacity="1.000" stroke-linecap="round" stroke-linejoin="round" d="M 551.436 31.032 Q 553.378 21.873 551.653 20.939 549.928 20.004 548.181 19.282 546.433 18.560 543.781 22.279 541.128 25.997 539.745 25.928 538.362 25.858 536.655 26.080 534.949 26.302 534.031 24.763 533.113 23.223 531.690 21.587 530.267 19.951 529.844 19.283 529.422 18.616 526.021 20.122 522.620 21.628 522.929 23.729 523.238 25.831 523.680 27.531 524.122 29.230 524.047 30.020 523.971 30.811 522.576 32.513 521.181 34.214 519.630 33.573 518.080 32.932 515.798 32.355 513.516 31.778 512.872 31.739 512.228 31.701 511.881 32.578 511.535 33.456 510.528 35.100 509.520 36.744 509.034 37.804 508.548 38.865 510.631 40.107 512.714 41.350 513.846 42.166 514.979 42.981 516.039 43.343 517.099 43.704 517.087 45.476 517.075 47.247 517.217 49.026 517.358 50.806 515.284 51.620 513.211 52.434 511.004 53.650 508.797 54.867 509.270 55.951 509.743 57.036 510.294 59.043 510.845 61.050 511.413 62.004 511.981 62.957 514.289 62.077 516.598 61.198 518.868 60.714 521.139 60.229 521.671 61.080 522.203 61.931 523.320 62.929 524.437 63.928 523.291 68.090 522.145 72.252 523.957 73.706 525.768 75.160 527.341 75.589 528.913 76.018 529.927 74.718 530.941 73.418 531.603 72.278 532.265 71.137 533.308 69.720 534.351 68.303 534.805 68.480 535.258 68.657 537.871 68.540 540.485 68.422 540.922 69.404 541.358 70.386 542.270 71.458 543.182 72.529 544.187 74.340 545.193 76.150 546.658 75.649 548.123 75.148 549.017 75.063 549.910 74.977 551.523 74.016 553.136 73.054 552.548 71.068 551.961 69.083 551.602 66.688 551.242 64.294 552.137 63.586 553.032 62.879 553.672 61.826 554.312 60.774 556.374 61.358 558.437 61.942 560.990 62.307 563.544 62.673 564.369 61.014 565.193 59.354 565.901 57.541 566.608 55.728 564.681 53.995 562.753 52.262 560.963 50.969 559.173 49.676 559.064 46.535 558.956 43.394 560.708 42.499 562.460 41.603 564.476 40.276 566.493 38.950 565.852 37.792 565.211 36.633 564.427 34.318 563.643 32.003 562.141 32.526 560.639 33.049 557.746 33.531 554.853 34.014 553.071 32.691 L 551.288 31.369 "></path>
    <path id="STROKE_C2FEED8B-1EA4-41E7-BD7C-0AA7A2ACBA24" opacity="1.000" fill="none" stroke="#747879" stroke-width="7.800" stroke-opacity="1.000" stroke-linecap="round" stroke-linejoin="round" d="M 544.865 -112.525 Q 543.749 -114.748 541.490 -117.223 539.232 -119.698 538.530 -119.588 537.828 -119.478 535.065 -118.133 532.303 -116.788 532.674 -115.648 533.045 -114.507 533.310 -111.288 533.575 -108.068 531.850 -106.838 530.125 -105.609 528.833 -104.063 527.541 -102.518 525.719 -103.431 523.897 -104.344 521.597 -104.942 519.297 -105.540 516.992 -103.116 514.687 -100.693 517.122 -97.094 519.557 -93.496 518.804 -89.733 518.052 -85.971 515.956 -85.881 513.860 -85.792 511.891 -85.196 509.923 -84.599 509.289 -80.999 508.655 -77.399 512.358 -76.109 516.061 -74.820 517.049 -70.659 518.038 -66.498 514.624 -63.805 511.210 -61.111 512.473 -57.952 513.736 -54.793 516.300 -54.956 518.864 -55.118 520.988 -55.643 523.112 -56.168 523.601 -55.190 524.090 -54.212 526.164 -51.996 528.238 -49.779 526.651 -45.838 525.063 -41.896 527.327 -39.997 529.591 -38.099 530.913 -39.457 532.234 -40.815 534.450 -41.978 536.665 -43.141 538.627 -42.250 540.589 -41.359 541.695 -41.341 542.801 -41.322 543.938 -40.494 545.075 -39.665 545.676 -36.450 546.276 -33.235 546.706 -32.631 547.137 -32.028 549.606 -31.264 552.076 -30.501 552.822 -32.776 553.568 -35.051 554.607 -36.988 555.646 -38.926 559.131 -39.329 562.617 -39.732 563.370 -39.514 564.124 -39.297 565.671 -37.381 567.218 -35.466 568.511 -34.566 569.803 -33.666 570.266 -34.074 570.730 -34.482 573.156 -34.911 575.583 -35.340 574.496 -39.821 573.409 -44.302 574.419 -44.892 575.430 -45.483 577.513 -47.488 579.596 -49.493 579.875 -50.160 580.154 -50.828 585.527 -48.985 590.899 -47.142 591.959 -48.028 593.019 -48.914 593.259 -50.438 593.500 -51.962 591.758 -53.895 590.016 -55.828 589.351 -58.841 588.687 -61.854 589.337 -64.737 589.988 -67.621 591.786 -67.471 593.584 -67.322 594.692 -67.591 595.801 -67.861 598.073 -69.273 600.345 -70.684 600.288 -72.881 600.231 -75.078 597.913 -77.017 595.595 -78.955 593.551 -79.449 591.507 -79.944 590.863 -83.440 590.218 -86.935 592.481 -89.017 594.745 -91.098 596.093 -91.981 597.441 -92.864 596.497 -95.210 595.554 -97.555 594.707 -97.758 593.859 -97.961 591.941 -97.660 590.022 -97.359 587.443 -97.290 584.864 -97.221 583.861 -99.030 582.858 -100.838 581.201 -101.921 579.545 -103.004 580.838 -105.461 582.131 -107.918 582.738 -109.548 583.346 -111.178 582.615 -112.166 581.884 -113.154 579.989 -114.535 578.094 -115.917 575.493 -113.542 572.893 -111.168 571.553 -111.150 570.213 -111.131 566.825 -111.942 563.436 -112.753 563.205 -115.451 562.974 -118.148 562.406 -119.929 561.839 -121.710 558.315 -122.165 554.791 -122.619 553.496 -118.339 552.201 -114.060 550.048 -113.722 547.895 -113.384 546.799 -112.733 L 545.702 -112.081 "></path>
    <path id="STROKE_01DA071D-2983-49E6-B00A-58F4095A8F81" opacity="1.000" fill="none" stroke="#5578af" stroke-width="7.800" stroke-opacity="1.000" stroke-linecap="round" stroke-linejoin="round" d="M 667.604 18.971 Q 669.501 14.893 669.825 11.595 670.149 8.297 668.278 3.893 666.406 -0.511 662.017 -3.823 657.629 -7.135 651.349 -8.253 645.069 -9.372 640.511 -8.600 635.954 -7.828 634.228 -8.462 632.501 -9.095 632.509 -11.608 632.517 -14.122 631.425 -16.953 630.334 -19.783 626.735 -24.349 623.136 -28.916 616.554 -33.962 609.971 -39.009 603.065 -40.914 596.159 -42.820 589.561 -42.526 582.962 -42.231 578.089 -40.989 573.216 -39.747 567.395 -36.937 561.575 -34.127 556.691 -29.586 551.808 -25.046 548.808 -19.871 545.808 -14.696 544.223 -9.831 542.637 -4.966 542.615 2.260 542.594 9.485 543.207 14.671 543.819 19.856 540.524 18.747 537.229 17.638 530.625 19.660 524.021 21.682 520.715 24.186 517.409 26.689 514.251 32.177 511.093 37.666 509.982 41.275 508.872 44.885 508.862 48.184 508.852 51.482 509.786 54.313 510.720 57.143 513.688 62.650 516.656 68.157 518.535 70.047 520.415 71.938 530.149 73.695 539.883 75.452 547.109 75.317 554.335 75.182 576.484 75.248 598.632 75.314 598.790 75.158 598.948 75.001 616.070 75.052 633.191 75.104 650.786 74.685 668.381 74.267 675.764 74.289 683.146 74.311 688.648 73.071 694.150 71.831 698.717 67.760 703.285 63.690 704.709 60.395 706.132 57.101 705.991 51.760 705.850 46.418 704.451 41.545 703.052 36.671 701.336 32.739 699.620 28.806 694.604 25.021 689.589 21.236 685.666 19.811 681.743 18.385 679.701 18.379 677.659 18.373 671.686 19.612 665.713 20.850 665.872 20.223 L 666.031 19.595 "></path>
  </g>
</svg>
