<?xml version="1.0" encoding="UTF-8"?>
<?xml-stylesheet type="text/css" href="../styles/stroke.css" ?>
<svg xmlns="http://www.w3.org/2000/svg" xmlns:xlink="http://www.w3.org/1999/xlink" version="1.1" viewBox="120 250 210 210">
  <!--
	Exported with Concepts: Smarter Sketching
	Version: 336
	iOS Version: 10.2
	https://concepts.tophatch.com/
	-->
  <title>three-circles</title>
  <desc>Drawing exported from Concepts: Smarter Sketching</desc>
  <g id="Pen" opacity="1.000">
    <path id="stroke-0" opacity="1.000" fill="none" stroke="#747879" stroke-width="7.800" stroke-opacity="1.000" stroke-linecap="round" stroke-linejoin="round" d="M 224.507 317.908 Q 224.890 321.282 225.122 339.594 225.355 357.906 225.336 375.594 225.317 393.281 225.783 404.843 226.249 416.404 223.375 416.911 220.501 417.418 211.751 417.627 203.002 417.836 193.876 417.421 184.750 417.006 161.187 417.064 137.625 417.122 132.438 417.322 127.251 417.522 126.747 415.773 126.242 414.025 126.603 408.024 126.963 402.023 126.423 385.837 125.883 369.650 126.227 356.837 126.570 344.024 126.102 331.462 125.634 318.901 129.382 318.142 133.130 317.382 141.257 318.112 149.384 318.842 174.446 318.781 199.509 318.719 207.757 318.262 216.006 317.804 219.692 317.232 L 223.379 316.661 "></path>
    <path id="stroke-1" opacity="1.000" fill="none" stroke="#747879" stroke-width="7.800" stroke-opacity="1.000" stroke-linecap="round" stroke-linejoin="round" d="M 126.008 318.775 Q 125.508 318.526 125.507 318.276 125.507 318.026 125.443 317.714 125.380 317.401 125.379 317.026 125.378 316.651 125.377 316.276 125.376 315.901 125.375 315.339 125.374 314.776 125.497 314.026 125.620 313.276 125.619 312.713 125.617 312.151 125.490 311.089 125.362 310.026 125.297 309.152 125.233 308.277 125.231 307.589 125.229 306.902 125.227 306.089 125.225 305.277 125.223 304.464 125.221 303.652 125.220 303.214 125.219 302.777 125.154 301.839 125.090 300.902 125.087 299.965 125.085 299.027 125.082 297.902 125.079 296.777 125.077 295.902 125.075 295.027 125.135 293.964 125.195 292.902 125.317 291.714 125.439 290.526 125.500 289.964 125.561 289.401 125.684 288.526 125.807 287.650 125.930 286.837 126.053 286.025 126.115 285.650 126.176 285.274 126.236 284.024 126.295 282.774 126.355 281.899 126.416 281.024 126.476 280.149 126.536 279.273 126.533 277.898 126.530 276.523 126.590 275.586 126.650 274.648 126.710 273.648 126.770 272.648 126.768 271.710 126.766 270.773 126.763 269.773 126.761 268.773 126.758 267.648 126.755 266.523 126.690 265.648 126.626 264.773 126.624 263.961 126.622 263.148 126.557 262.336 126.493 261.524 126.429 260.961 126.365 260.399 126.363 259.649 126.361 258.899 126.360 258.336 126.359 257.774 126.358 257.399 126.357 257.024 126.356 256.586 126.355 256.149 126.479 255.899 126.603 255.648 126.853 255.585 127.103 255.522 127.603 255.521 128.103 255.520 128.540 255.393 128.977 255.267 129.290 255.204 129.602 255.141 130.165 255.077 130.727 255.013 131.414 255.011 132.102 255.010 132.852 255.008 133.602 255.006 134.289 255.067 134.977 255.128 135.727 255.188 136.477 255.249 137.415 255.247 138.352 255.244 139.415 255.304 140.478 255.364 141.228 255.362 141.978 255.360 142.978 255.421 143.978 255.481 145.166 255.540 146.353 255.600 147.541 255.597 148.728 255.594 150.041 255.653 151.354 255.712 152.291 255.773 153.229 255.833 154.542 255.955 155.855 256.076 157.292 256.135 158.730 256.194 160.230 256.253 161.730 256.312 163.230 256.371 164.730 256.430 165.918 256.489 167.106 256.549 168.606 256.608 170.106 256.666 171.356 256.663 172.606 256.660 173.669 256.658 174.731 256.655 175.919 256.715 177.106 256.774 177.919 256.772 178.731 256.770 179.419 256.831 180.107 256.892 180.919 256.952 181.732 257.013 182.482 257.136 183.233 257.259 183.795 257.258 184.358 257.256 184.920 257.255 185.483 257.254 185.920 257.253 186.358 257.252 186.608 257.251 186.858 257.250 187.108 257.312 187.358 257.374 187.484 257.811 187.610 258.248 187.611 258.561 187.612 258.873 187.550 259.374 187.489 259.874 187.428 260.436 187.367 260.999 187.119 261.875 186.871 262.750 186.810 263.313 186.749 263.876 186.751 264.626 186.752 265.376 186.817 266.188 186.881 267.000 187.071 267.875 187.261 268.749 187.388 269.749 187.516 270.749 187.580 271.561 187.645 272.373 187.772 273.436 187.900 274.498 188.027 275.310 188.154 276.122 188.344 277.184 188.534 278.246 188.661 279.183 188.789 280.121 188.791 280.871 188.792 281.621 188.795 282.496 188.797 283.371 188.862 284.370 188.927 285.370 188.929 286.183 188.931 286.995 188.932 287.683 188.934 288.370 188.936 289.245 188.938 290.120 188.940 290.745 188.941 291.370 188.943 292.245 188.946 293.120 188.885 293.808 188.824 294.496 188.764 295.371 188.703 296.246 188.705 296.933 188.707 297.621 188.646 298.371 188.585 299.121 188.525 299.871 188.464 300.621 188.466 301.371 188.468 302.121 188.344 302.684 188.220 303.247 188.097 304.060 187.974 304.873 187.976 305.498 187.978 306.123 187.855 306.935 187.732 307.748 187.671 308.373 187.610 308.999 187.611 309.624 187.613 310.249 187.615 311.061 187.617 311.874 187.618 312.499 187.620 313.124 187.559 313.686 187.497 314.249 187.499 314.811 187.500 315.374 187.439 315.874 187.378 316.374 187.317 316.937 187.255 317.499 187.132 317.937 187.008 318.375 186.946 318.813 186.885 319.250 186.886 319.625 186.887 320.000 186.888 320.438 186.889 320.875 187.015 321.313 187.141 321.750 187.204 322.062 L 187.267 322.374 "></path>
    <path id="stroke-2" opacity="1.000" fill="none" stroke="#747879" stroke-width="7.800" stroke-opacity="1.000" stroke-linecap="round" stroke-linejoin="round" d="M 183.982 257.007 Q 183.606 256.633 183.418 256.509 183.230 256.384 182.980 256.322 182.730 256.260 182.918 256.385 183.106 256.509 183.418 256.571 183.731 256.633 184.169 256.694 184.606 256.756 185.481 256.816 186.357 256.877 186.857 256.938 187.357 256.999 187.607 256.998 187.857 256.998 188.357 256.997 188.857 256.995 189.169 256.995 189.482 256.994 190.420 257.054 191.357 257.114 192.295 257.174 193.233 257.235 194.295 257.294 195.358 257.354 196.233 257.415 197.108 257.475 198.171 257.660 199.234 257.845 200.359 257.967 201.485 258.089 202.672 258.211 203.860 258.334 204.985 258.393 206.111 258.453 206.611 258.514 207.111 258.576 208.173 258.635 209.236 258.695 210.174 258.693 211.111 258.691 212.049 258.688 212.986 258.686 213.736 258.684 214.486 258.682 215.174 258.681 215.861 258.679 216.549 258.677 217.236 258.676 217.986 258.674 218.736 258.672 219.236 258.671 219.736 258.670 220.486 258.668 221.236 258.666 221.736 258.665 222.236 258.663 222.486 258.663 222.736 258.662 223.048 258.599 223.361 258.536 223.673 258.535 223.986 258.534 224.298 258.533 224.611 258.533 224.862 258.844 225.112 259.156 225.113 259.469 225.114 259.781 225.053 260.469 224.992 261.157 224.869 261.844 224.746 262.532 224.747 263.157 224.749 263.782 224.750 264.532 224.752 265.282 224.754 266.095 224.756 266.907 224.696 267.782 224.636 268.658 224.638 269.720 224.641 270.783 224.641 271.033 224.642 271.283 224.706 271.845 224.770 272.407 224.834 272.907 224.897 273.407 224.961 273.907 225.025 274.407 225.088 274.844 225.152 275.281 225.216 275.781 225.279 276.281 225.343 276.718 225.406 277.156 225.407 277.531 225.408 277.906 225.410 278.468 225.411 279.031 225.412 279.343 225.413 279.656 225.351 280.031 225.289 280.406 225.290 280.781 225.291 281.156 225.292 281.531 225.293 281.906 225.294 282.218 225.295 282.531 225.296 282.906 225.297 283.281 225.297 283.656 225.298 284.031 225.362 284.468 225.426 284.906 225.427 285.343 225.428 285.781 225.491 286.030 225.554 286.280 225.555 286.655 225.556 287.030 225.557 287.343 225.557 287.655 225.558 288.030 225.559 288.405 225.623 288.780 225.686 289.155 225.687 289.592 225.688 290.030 225.752 290.405 225.815 290.780 225.816 291.155 225.817 291.530 225.818 292.030 225.819 292.530 225.820 292.780 225.820 293.030 225.822 293.467 225.823 293.905 225.824 294.342 225.825 294.780 225.888 295.217 225.952 295.654 226.016 296.092 226.079 296.529 226.143 296.966 226.206 297.404 226.207 297.841 226.208 298.279 226.209 298.716 226.211 299.154 226.212 299.779 226.214 300.404 226.215 300.779 226.215 301.154 226.279 301.779 226.344 302.403 226.344 302.778 226.345 303.153 226.409 303.591 226.473 304.028 226.474 304.528 226.475 305.028 226.476 305.466 226.477 305.903 226.416 306.341 226.354 306.778 226.293 307.216 226.231 307.654 226.232 308.091 226.234 308.529 226.235 308.966 226.236 309.404 226.237 309.779 226.238 310.154 226.239 310.591 226.240 311.029 226.241 311.466 226.242 311.904 226.243 312.279 226.244 312.654 226.245 313.029 226.246 313.404 226.246 313.716 226.247 314.029 226.248 314.404 226.249 314.779 226.187 315.091 226.125 315.404 226.126 315.654 L 226.127 315.904 "></path>
    <path id="stroke-3" opacity="1.000" fill="none" stroke="#747879" stroke-width="7.800" stroke-opacity="1.000" stroke-linecap="round" stroke-linejoin="round" d="M 202.256 317.713 Q 202.255 317.213 202.129 316.713 202.002 316.213 201.939 315.963 201.876 315.714 201.875 315.401 201.875 315.089 201.936 314.713 201.998 314.338 202.122 313.900 202.246 313.463 202.307 313.087 202.369 312.712 202.492 312.150 202.616 311.587 202.615 311.087 202.614 310.587 202.613 310.212 202.612 309.837 202.611 309.524 202.610 309.212 202.609 308.899 202.609 308.587 202.545 308.212 202.482 307.837 202.419 307.525 202.355 307.212 202.355 306.900 202.354 306.587 202.291 306.338 202.228 306.088 202.164 305.775 202.101 305.463 202.100 305.150 202.099 304.838 202.099 304.463 202.098 304.088 202.034 303.713 201.971 303.338 201.970 303.026 201.969 302.713 201.968 302.151 201.966 301.588 201.903 301.088 201.839 300.589 201.838 300.089 201.837 299.589 201.773 299.089 201.709 298.589 201.708 298.089 201.707 297.589 201.705 297.089 201.704 296.589 201.640 296.089 201.577 295.589 201.576 295.214 201.575 294.839 201.574 294.589 201.574 294.339 201.949 294.526 202.325 294.712 202.762 294.586 203.199 294.460 203.449 294.460 203.699 294.459 204.011 294.396 204.324 294.332 204.636 294.332 204.949 294.331 205.323 294.268 205.698 294.204 206.073 294.141 206.448 294.077 206.823 294.076 207.198 294.075 207.573 294.075 207.948 294.074 208.385 294.073 208.823 294.071 209.385 294.070 209.948 294.069 210.385 294.068 210.823 294.067 211.260 294.065 211.698 294.064 212.260 294.063 212.823 294.062 213.323 294.060 213.823 294.059 214.385 293.995 214.948 293.931 215.448 293.930 215.948 293.929 216.448 293.928 216.948 293.926 217.573 293.987 218.198 294.048 218.886 294.172 219.574 294.295 220.074 294.356 220.574 294.418 221.011 294.417 221.449 294.415 221.886 294.414 222.324 294.413 222.824 294.412 223.324 294.411 223.636 294.410 L 223.949 294.409 "></path>
    <path id="stroke-4" opacity="1.000" fill="none" stroke="#747879" stroke-width="7.800" stroke-opacity="1.000" stroke-linecap="round" stroke-linejoin="round" d="M 188.221 303.372 Q 188.720 303.246 189.033 303.245 189.345 303.244 189.783 303.306 190.221 303.367 190.533 303.366 190.846 303.366 191.283 303.365 191.721 303.363 191.971 303.363 192.221 303.362 192.971 303.423 193.721 303.484 194.221 303.482 194.721 303.481 195.096 303.480 195.471 303.479 195.784 303.479 196.096 303.478 196.409 303.477 196.721 303.476 197.284 303.475 197.846 303.473 198.284 303.472 198.721 303.471 199.096 303.470 199.471 303.469 199.909 303.468 200.346 303.467 201.221 303.465 L 202.096 303.463 "></path>
    <path id="stroke-5" opacity="1.000" fill="none" stroke="#747879" stroke-width="7.800" stroke-opacity="1.000" stroke-linecap="round" stroke-linejoin="round" d="M 190.196 293.242 Q 189.696 293.118 190.195 293.055 190.695 292.991 191.258 292.990 191.820 292.988 192.133 292.987 192.445 292.987 193.133 292.985 193.820 292.983 194.320 292.982 194.820 292.981 195.195 292.980 195.570 292.979 195.945 292.978 196.320 292.977 196.695 293.039 197.071 293.100 197.446 293.099 197.821 293.098 198.196 293.098 198.571 293.097 198.821 293.096 199.071 293.095 199.571 293.157 200.071 293.218 200.383 293.217 200.696 293.216 200.946 293.216 201.196 293.215 201.571 293.214 201.946 293.213 202.321 293.212 202.696 293.211 203.071 293.273 L 203.446 293.335 "></path>
    <path id="stroke-6" opacity="1.000" fill="none" stroke="#747879" stroke-width="7.800" stroke-opacity="1.000" stroke-linecap="round" stroke-linejoin="round" d="M 195.847 303.853 Q 195.720 303.229 195.720 302.979 195.719 302.729 195.655 302.229 195.592 301.729 195.591 301.479 195.591 301.229 195.590 300.916 195.589 300.604 195.588 300.041 195.586 299.479 195.585 299.041 195.584 298.604 195.646 298.291 195.708 297.979 195.831 297.353 195.954 296.728 196.016 296.415 196.078 296.103 196.202 295.540 196.325 294.977 196.386 294.477 L 196.448 293.977 "></path>
    <path id="stroke-7" opacity="1.000" fill="none" stroke="#747879" stroke-width="7.800" stroke-opacity="1.000" stroke-linecap="round" stroke-linejoin="round" d="M 225.999 416.780 Q 200.119 414.718 188.607 409.746 177.095 404.775 169.269 399.294 161.443 393.813 153.984 385.081 146.525 376.350 141.193 368.488 135.861 360.626 133.851 356.443 131.841 352.261 129.191 342.080 126.541 331.899 125.830 322.275 125.118 312.652 125.670 308.276 126.222 303.899 128.886 294.393 131.550 284.886 134.352 280.692 137.155 276.497 143.954 271.043 150.753 265.589 157.371 262.823 163.989 260.056 174.424 258.781 184.858 257.505 191.422 257.989 197.986 258.473 204.117 261.083 210.248 263.693 213.818 266.622 217.388 269.550 221.407 277.228 225.426 284.906 226.324 294.403 227.222 303.901 224.359 308.908 221.497 313.915 218.752 316.235 216.008 318.554 210.138 320.381 204.267 322.208 199.261 319.658 194.255 317.107 192.245 313.237 190.236 309.367 190.098 304.117 189.960 298.868 192.142 296.800 194.325 294.732 197.576 295.349 200.828 295.966 199.022 298.658 L 197.216 301.350 "></path>
    <path id="stroke-8" opacity="1.000" fill="none" stroke="#ad6164" stroke-width="7.800" stroke-opacity="1.000" stroke-linecap="round" stroke-linejoin="round" d="M 227.415 296.502 Q 238.369 277.975 246.855 271.954 255.340 265.933 263.334 263.413 271.328 260.894 277.827 260.628 284.326 260.362 292.581 262.341 300.836 264.321 310.102 270.798 319.368 277.276 322.893 287.517 326.418 297.758 325.695 308.510 324.971 319.262 317.255 333.031 309.539 346.800 305.053 352.561 300.567 358.322 290.843 369.096 281.120 379.870 267.900 392.152 254.680 404.435 242.700 412.714 L 230.721 420.994 "></path>
  </g>
</svg>
